<!--?xml version="1.0" standalone="no"?-->

<svg version="1.0" xmlns="http://www.w3.org/2000/svg" width="300.000000pt" height="271.000000pt" viewBox="0 0 300.000000 271.000000" preserveAspectRatio="xMidYMid meet">
<g transform="translate(0.000000,271.000000) scale(0.100000,-0.100000)" fill="#0D0F0E" stroke="none">
<path d="M1587 2468 c-53 -117 -105 -230 -114 -251 -10 -20 -20 -36 -24 -35
-4 2 -89 95 -190 207 l-184 203 -3 -153 c-1 -85 0 -163 3 -174 2 -11 34 -42
70 -68 36 -26 65 -52 65 -57 0 -5 -75 -109 -167 -231 l-167 -222 27 -50 c15
-28 25 -52 24 -54 -2 -1 -43 16 -91 40 l-87 42 172 229 172 230 -29 23 c-37
30 -70 38 -102 27 -15 -5 -84 -76 -155 -159 -71 -83 -153 -177 -183 -210 l-52
-60 -66 32 c-54 27 -66 37 -66 57 0 39 -29 109 -57 138 -79 82 -221 89 -302
15 -51 -47 -75 -98 -75 -162 0 -96 44 -163 134 -204 51 -23 96 -26 150 -10 31
10 46 8 84 -6 25 -10 46 -20 46 -22 0 -3 -14 -23 -31 -44 -23 -30 -40 -41 -70
-45 -64 -11 -124 -57 -155 -120 -23 -47 -26 -63 -21 -115 21 -239 356 -272
423 -43 15 54 14 86 -9 151 -10 29 -8 36 32 87 l43 55 66 -26 c118 -45 130
-47 147 -33 9 7 37 44 62 83 41 61 156 177 175 177 4 0 19 -16 34 -35 l26 -35
-28 -22 c-47 -35 -124 -119 -145 -158 -11 -19 -23 -42 -28 -50 -23 -37 -51
-111 -69 -180 -25 -93 -26 -96 -101 -253 -34 -71 -61 -136 -61 -146 0 -31 41
-71 98 -97 l55 -24 -7 -58 c-13 -116 -9 -219 9 -249 34 -57 59 -66 198 -77
l129 -9 -7 -96 c-3 -53 -8 -122 -11 -155 l-6 -59 28 5 c16 3 88 15 159 27 72
12 153 26 180 31 28 5 111 19 185 30 74 12 142 23 151 26 17 5 17 4 36 288 l6
99 93 91 92 92 32 -26 c36 -30 34 -44 -14 -89 -14 -14 -26 -28 -26 -32 0 -4
19 -14 43 -24 23 -9 56 -23 72 -30 17 -7 62 -27 100 -43 39 -16 126 -53 193
-81 68 -29 126 -50 129 -47 3 2 -52 115 -120 250 -69 135 -122 248 -118 250 4
3 126 12 271 21 146 8 268 19 271 23 4 4 -87 78 -202 166 -115 87 -213 164
-218 170 -10 12 7 22 329 203 167 95 162 89 93 102 -32 6 -101 20 -153 31 -52
12 -148 31 -212 43 -64 12 -120 26 -124 29 -3 4 40 74 97 155 195 281 211 304
207 308 -4 4 -124 -23 -347 -80 -101 -25 -186 -43 -189 -40 -4 3 1 52 11 108
60 364 69 428 64 434 -4 3 -33 -16 -64 -44 -136 -117 -365 -305 -368 -301 -2
2 -13 35 -24 73 -11 39 -29 99 -40 135 -70 239 -91 310 -91 315 0 3 -4 5 -9 5
-4 0 -52 -96 -104 -212z m-1296 -577 c55 -55 30 -148 -45 -167 -95 -24 -160
102 -87 168 43 39 92 38 132 -1z m1163 -63 c15 -59 11 -64 -76 -86 -46 -12
-92 -24 -103 -27 -17 -5 -23 0 -33 28 -7 18 -12 36 -12 40 0 12 45 31 115 48
93 23 102 23 109 -3z m246 7 c61 -14 140 -43 140 -52 0 -2 -7 -20 -15 -39 -13
-31 -18 -35 -37 -30 -13 4 -60 17 -106 28 l-84 22 7 35 c11 59 5 56 95 36z
m335 -171 c24 -19 60 -55 79 -79 l36 -44 -34 -26 -35 -26 -76 75 -77 76 22 30
c12 16 26 30 31 30 6 0 30 -16 54 -36z m229 -351 c33 -111 34 -143 4 -143 -13
0 -33 -3 -45 -6 -19 -5 -23 -2 -23 18 0 29 -39 158 -53 175 -7 10 0 17 24 28
60 25 64 22 93 -72z m-1831 27 c31 -35 35 -74 10 -110 -26 -38 -45 -49 -84
-50 -101 -1 -136 139 -46 184 43 22 86 13 120 -24z m1854 -325 c15 -5 9 -54
-19 -152 -12 -40 -26 -73 -33 -73 -26 0 -75 23 -75 35 0 7 6 28 14 46 8 19 17
57 21 84 10 75 10 75 47 69 18 -3 38 -7 45 -9z m-677 -326 c0 -4 -4 -11 -10
-14 -14 -9 -13 -48 2 -63 15 -15 51 -15 66 0 15 15 16 50 1 65 -8 8 -8 17 0
32 16 29 28 26 52 -11 37 -59 11 -126 -57 -148 -49 -16 -105 12 -120 60 -13
40 -3 89 23 108 15 11 20 10 30 -5 7 -9 13 -20 13 -24z" id="node1" class="node"></path>
<path d="M561 2217 c7 -12 36 -63 66 -114 l55 -92 52 56 c28 31 51 61 51 66 0
6 -45 29 -100 52 -149 61 -137 58 -124 32z" id="node2" class="node"></path>
</g>
<g transform="translate(0.000000,271.000000) scale(0.100000,-0.100000)" fill="#A0A1A0" stroke="none">

<path d="M159 1892 c-73 -66 -8 -192 87 -168 75 19 100 112 45 167 -40 39 -89
40 -132 1z" id="node4" class="node"></path>
<path d="M1345 1831 c-70 -17 -115 -36 -115 -48 0 -4 5 -22 12 -40 10 -28 16
-33 33 -28 11 3 57 15 103 27 87 22 91 27 76 86 -7 26 -16 26 -109 3z" id="node5" class="node"></path>
<path d="M1616 1842 c-2 -4 -7 -23 -11 -43 l-7 -35 84 -22 c46 -11 93 -24 106
-28 19 -5 24 -1 37 30 8 19 15 37 15 39 0 9 -79 38 -140 52 -76 17 -77 17 -84
7z" id="node6" class="node"></path>
<path d="M1950 1670 l-22 -30 77 -76 76 -75 35 26 34 26 -36 44 c-39 48 -116
115 -133 115 -5 0 -19 -14 -31 -30z" id="node7" class="node"></path>
<path d="M2171 1385 c-24 -11 -31 -18 -24 -28 14 -17 53 -146 53 -175 0 -20 4
-23 23 -18 12 3 32 6 45 6 30 0 29 32 -4 143 -29 94 -33 97 -93 72z" id="node8" class="node"></path>
<path d="M313 1364 c-90 -45 -55 -185 46 -184 39 1 58 12 84 50 25 36 21 75
-10 110 -34 37 -77 46 -120 24z" id="node9" class="node"></path>
<path d="M2205 1017 c-2 -6 -7 -34 -10 -62 -4 -27 -13 -65 -21 -84 -8 -18 -14
-39 -14 -46 0 -12 49 -35 75 -35 12 0 49 115 59 183 5 41 5 41 -52 51 -21 4
-34 1 -37 -7z" id="node10" class="node"></path>
<path d="M1567 718 c-50 -37 -35 -132 25 -161 93 -45 183 54 129 141 -24 37
-36 40 -52 11 -8 -15 -8 -24 0 -32 15 -15 14 -50 -1 -65 -15 -15 -51 -15 -66
0 -15 15 -16 54 -2 63 13 8 13 18 -3 38 -10 15 -15 16 -30 5z" id="node11" class="node"></path>
</g>
</svg>